{
	"asset":{
		"generator":"Khronos glTF Blender I/O v3.5.30",
		"version":"2.0"
	},
	"scene":0,
	"scenes":[
		{
			"name":"Scene",
			"nodes":[
				0,
				1,
				2,
				3
			]
		}
	],
	"nodes":[
		{
			"mesh":0,
			"name":"wall"
		},
		{
			"mesh":1,
			"name":"table"
		},
		{
			"mesh":2,
			"name":"Cube"
		},
		{
			"mesh":3,
			"name":"floor"
		}
	],
	"materials":[
		{
			"doubleSided":true,
			"name":"Material.002",
			"pbrMetallicRoughness":{
				"baseColorFactor":[
					0.8000000715255737,
					0.7999350428581238,
					0.22243018448352814,
					1
				],
				"metallicFactor":0,
				"roughnessFactor":0.5
			}
		},
		{
			"doubleSided":true,
			"name":"Material.001",
			"pbrMetallicRoughness":{
				"baseColorFactor":[
					0.8000000715255737,
					0.0722762793302536,
					0.02515091374516487,
					1
				],
				"metallicFactor":0,
				"roughnessFactor":0.5
			}
		},
		{
			"doubleSided":true,
			"name":"Material.003",
			"pbrMetallicRoughness":{
				"baseColorFactor":[
					0.8000000715255737,
					0.3372560441493988,
					0.2778027653694153,
					1
				],
				"metallicFactor":0,
				"roughnessFactor":0.5
			}
		}
	],
	"meshes":[
		{
			"name":"Cube.003",
			"primitives":[
				{
					"attributes":{
						"POSITION":0,
						"TEXCOORD_0":1,
						"NORMAL":2
					},
					"indices":3,
					"material":0
				}
			]
		},
		{
			"name":"Cube",
			"primitives":[
				{
					"attributes":{
						"POSITION":4,
						"TEXCOORD_0":5,
						"NORMAL":6
					},
					"indices":7,
					"material":1
				}
			]
		},
		{
			"name":"Cube.001",
			"primitives":[
				{
					"attributes":{
						"POSITION":8,
						"TEXCOORD_0":9,
						"NORMAL":10
					},
					"indices":11,
					"material":2
				}
			]
		},
		{
			"name":"Cube.002",
			"primitives":[
				{
					"attributes":{
						"POSITION":12,
						"TEXCOORD_0":13,
						"NORMAL":14
					},
					"indices":11,
					"material":2
				}
			]
		}
	],
	"accessors":[
		{
			"bufferView":0,
			"componentType":5126,
			"count":140,
			"max":[
				2.165627956390381,
				8,
				8.499932289123535
			],
			"min":[
				-22.83437156677246,
				0,
				-8.499933242797852
			],
			"type":"VEC3"
		},
		{
			"bufferView":1,
			"componentType":5126,
			"count":140,
			"type":"VEC2"
		},
		{
			"bufferView":2,
			"componentType":5126,
			"count":140,
			"type":"VEC3"
		},
		{
			"bufferView":3,
			"componentType":5123,
			"count":360,
			"type":"SCALAR"
		},
		{
			"bufferView":4,
			"componentType":5126,
			"count":212,
			"max":[
				-8.002542495727539,
				1.6490727663040161,
				0.9698061943054199
			],
			"min":[
				-11.235212326049805,
				0.043317556381225586,
				-1.0528740882873535
			],
			"type":"VEC3"
		},
		{
			"bufferView":5,
			"componentType":5126,
			"count":212,
			"type":"VEC2"
		},
		{
			"bufferView":6,
			"componentType":5126,
			"count":212,
			"type":"VEC3"
		},
		{
			"bufferView":7,
			"componentType":5123,
			"count":468,
			"type":"SCALAR"
		},
		{
			"bufferView":8,
			"componentType":5126,
			"count":24,
			"max":[
				3.025442123413086,
				9.73393726348877,
				8.52377700805664
			],
			"min":[
				-21.974557876586914,
				8.070597648620605,
				-8.44300651550293
			],
			"type":"VEC3"
		},
		{
			"bufferView":9,
			"componentType":5126,
			"count":24,
			"type":"VEC2"
		},
		{
			"bufferView":10,
			"componentType":5126,
			"count":24,
			"type":"VEC3"
		},
		{
			"bufferView":11,
			"componentType":5123,
			"count":36,
			"type":"SCALAR"
		},
		{
			"bufferView":12,
			"componentType":5126,
			"count":24,
			"max":[
				3.025442123413086,
				0.007187344133853912,
				8.52377700805664
			],
			"min":[
				-21.974557876586914,
				-0.15914663672447205,
				-8.44300651550293
			],
			"type":"VEC3"
		},
		{
			"bufferView":13,
			"componentType":5126,
			"count":24,
			"type":"VEC2"
		},
		{
			"bufferView":14,
			"componentType":5126,
			"count":24,
			"type":"VEC3"
		}
	],
	"bufferViews":[
		{
			"buffer":0,
			"byteLength":1680,
			"byteOffset":0,
			"target":34962
		},
		{
			"buffer":0,
			"byteLength":1120,
			"byteOffset":1680,
			"target":34962
		},
		{
			"buffer":0,
			"byteLength":1680,
			"byteOffset":2800,
			"target":34962
		},
		{
			"buffer":0,
			"byteLength":720,
			"byteOffset":4480,
			"target":34963
		},
		{
			"buffer":0,
			"byteLength":2544,
			"byteOffset":5200,
			"target":34962
		},
		{
			"buffer":0,
			"byteLength":1696,
			"byteOffset":7744,
			"target":34962
		},
		{
			"buffer":0,
			"byteLength":2544,
			"byteOffset":9440,
			"target":34962
		},
		{
			"buffer":0,
			"byteLength":936,
			"byteOffset":11984,
			"target":34963
		},
		{
			"buffer":0,
			"byteLength":288,
			"byteOffset":12920,
			"target":34962
		},
		{
			"buffer":0,
			"byteLength":192,
			"byteOffset":13208,
			"target":34962
		},
		{
			"buffer":0,
			"byteLength":288,
			"byteOffset":13400,
			"target":34962
		},
		{
			"buffer":0,
			"byteLength":72,
			"byteOffset":13688,
			"target":34963
		},
		{
			"buffer":0,
			"byteLength":288,
			"byteOffset":13760,
			"target":34962
		},
		{
			"buffer":0,
			"byteLength":192,
			"byteOffset":14048,
			"target":34962
		},
		{
			"buffer":0,
			"byteLength":288,
			"byteOffset":14240,
			"target":34962
		}
	],
	"buffers":[
		{
			"byteLength":14528,
			"uri":"data:application/octet-stream;base64,"
		}
	]
}
